<?xml version="1.0" encoding="utf-8"?>
<!-- Svg Vector Icons : http://www.onlinewebfonts.com/icon -->
<!DOCTYPE svg PUBLIC "-//W3C//DTD SVG 1.1//EN" "http://www.w3.org/Graphics/SVG/1.1/DTD/svg11.dtd">
<svg version="1.1" xmlns="http://www.w3.org/2000/svg" xmlns:xlink="http://www.w3.org/1999/xlink" x="0px" y="0px" viewBox="0 0 1000 1000" enable-background="new 0 0 1000 1000" xml:space="preserve">
<metadata> Svg Vector Icons : http://www.onlinewebfonts.com/icon </metadata>
<g><path d="M455.7,288.8V46.9l141.1,159.6L455.7,288.8z"/><path d="M455.7,46.9L337.4,209.7l118.3,79V46.9z"/><path d="M193.2,406.5l-71.8,97.9L453.1,726V580.8L193.2,406.5z"/><path d="M453.1,580.8V726L855,499.6l-89.9-100.8L453.1,580.8z"/><path d="M263.2,310.3l-53.4,72.8l244.1,163V438L263.2,310.3z"/><path d="M454.9,437.1v108.1l294.5-165.9l-66.9-75L454.9,437.1z"/><path d="M319.6,232.4l-38.2,52.1l173.7,116v-77.3L319.6,232.4z"/><path d="M455.1,323.2v77.3l209-117.7l-47.8-53.6L455.1,323.2z"/><path d="M101.8,531.2L10,656.5l443.9,296.6V767.2L101.8,531.2z"/><path d="M453.9,767.2v185.9l536.1-302L874.7,521.8L453.9,767.2z"/></g>
</svg>
