<?xml version="1.0" encoding="utf-8"?>

<!DOCTYPE svg PUBLIC "-//W3C//DTD SVG 1.1//EN" "http://www.w3.org/Graphics/SVG/1.1/DTD/svg11.dtd">
<svg version="1.1" id="Layer_1" xmlns="http://www.w3.org/2000/svg" xmlns:xlink="http://www.w3.org/1999/xlink" x="0px" y="0px"
	 viewBox="0 0 1428.877 1707.952" style="enable-background:new 0 0 1428.877 1707.952;" xml:space="preserve">
<path d="M1382.689,1297.487c-1.424-2.511-1.102-5.48-1.774-8.191c-0.801-5.991-14.255-22.3-18.55-33.087
	c-3.504-8.157-18.336-27.579-18.336-27.579c1.409-2.876,2.232-6.024,2.297-9.214c-1.553-3.671-2.484-16.841-19.115-19.659
	c-9.88-1.992,1.305-8.411-29.253-6.61c-1.958,0.174-23.653-0.373-33.016,3.241c-1.466,0.672-3.098,0.715-4.657,0.794
	c0.615-0.823,1.281-1.61,1.96-2.382c-1.724-2.268-4.378-4.092-7.354-3.491c-4.736,0.866-9.157-3.77-13.729-1.517
	c-2.211,0.973-4.621-0.322-6.839-0.644c0.858-1.703,1.366-3.541,1.316-5.451c-1.667-0.994-3.305-2.01-4.915-3.055
	c2.574-3.951-0.346-6.855-4.879-7.998c0.258-1.538,0.587-3.119,0.315-4.657c-1.238-1.61-2.683-3.334-4.765-3.749
	c0.594-2.439-1.145-4.457-2.504-6.267c-1.145-0.866-2.611-1.073-3.906-1.567c0.329-1.588,0.83-3.226,0.436-4.829
	c-1.095-1.767-3.119-2.468-4.886-3.305c-0.05-3.183-2.497-5.408-4.643-7.397c-1.216-0.329-2.468-0.329-3.684-0.429
	c-2.389-7.372-6.019-4.407-7.025-8.17c-1.152-2.511-3.856-3.641-6.503-3.463c-2.137-5.882-1.941-5.761-7.984-6.224
	c-0.615-1.932-1.459-3.792-2.876-5.251c1.817-1.195,2.597-3.169,2.854-5.244c2.161,2.411,5.129,3.856,8.356,4.142
	c1.345-0.243,2.847-0.715,3.398-2.103c-1.009,0.136-1.996,0.293-2.962,0.479c0.494-1.932,1.832-3.455,3.455-4.557
	c2.032-0.436,4.142-0.2,6.224-0.315c-1.009-0.937-1.817-2.196-3.069-2.769c-1.18,0.115-2.311,0.472-3.441,0.758
	c0.529-1.381,0.966-2.804,1.688-4.092c1.402-1.345,3.255-2.096,4.908-3.09c-0.508-1.388-1.195-2.69-2.275-3.692
	c0.723-0.937,1.445-1.867,2.175-2.797c-8.168,0.665-2.041,1.931-9.558,3.591c0.515-0.83,1.073-1.624,1.645-2.404
	c-3.105-1.459-6.281-0.029-9.214,1.08c-0.556-8.089,0.881-15.99-1.502-18.786c-0.208,1.839-0.072,3.677-0.05,5.537
	c-1.495-0.329-1.431-1.882-1.731-3.048c-0.751-0.172-1.488-0.329-2.211-0.472c-0.615-1.009-1.252-1.989-1.91-2.933
	c-0.579,1.23-1.016,2.518-1.381,3.842c-1.195-1.688-2.554-3.234-3.799-4.85c-1.037,0.615-2.11,1.159-3.198,1.645
	c-0.064,2.354-0.05,4.714-0.143,7.09c-2.304-0.944-2.075-4.078-3.691-5.73c0.25,2.611,0.987,5.144,1.602,7.698
	c-0.451-0.122-1.352-0.365-1.803-0.486c-2.613-9.863-34.734-62.551-51.637-79.216c-4.179-4.645-4.628,0.171-10.595-16.569
	c-81.327-200.889-20.747-273.739-88.044-384.811c-22.371-37.576-61.487-63.484-112.131-66.446c-0.265-0.773-0.587-1.502-0.966-2.196
	c-1.001-0.726-42.098-24.674-86.062-58.441c-16.609-13.441-25.824-13.694-14.601-84.03c0.384-4.444,20.256-24.257,20.51-41.214
	c-0.071-2.711,1.602-4.815,3.405-6.632c-0.429-1.982-0.801-3.985-0.923-6.009c24.408,7.433,12.813-13.525,25.933-30.354
	c2.196-3.176,1.431-7.49,3.513-10.688c3.055-2.075,7.14-2.511,9.579-5.494c3.763-4.421,6.639-10.001,6.596-15.932
	c0.934-22.456,1.995-10.691-5.315-24.96c0.551-0.322,1.109-0.644,1.681-0.951c-0.272-3.277-1.059-6.453-1.753-9.651
	c0.909-0.072,1.824-0.136,2.747-0.193c-0.172-1.145-0.322-2.289-0.458-3.427c0.508-0.143,1.531-0.422,2.046-0.565
	c-3.422-2.537-6.369-3.574-2.504-6.682c-1.474-0.565-3.019-1.102-4.257-2.075c-2.049-3.489,2.965-9.32,7.69-18.364
	c1.073,0.572,1.86,1.495,2.547,2.497c-0.737-1.638-2.132-5.065,0.665-5.387c1.817-0.486,2.475,1.195,2.976,2.575
	c-0.441-6.981-0.719-7.81,0.093-23.673c1.655-5.045,1.449-8.455-0.429-21.677c-0.351-2.482,0.644-5.158-0.587-7.49
	c-2.719-5.158-3.262-11.318-6.682-16.118c-2.325-2.125-1.302-5.759-3.312-8.077c-2.368-3.198-4.443-6.596-6.367-10.073
	c0.451-0.007,1.352-0.014,1.81-0.014c-4.941-3.866-14.758-20.978-17.935-23.243c-1.684-0.766-17.997-13.832-18.929-14.737
	c-1.531-1.488-3.548-2.246-5.394-3.234c-2.182-1.066-3.355-3.577-5.759-4.242c-4.687-2.334-4.123,1.525-11.332-5.036
	c1.116-0.014,2.239-0.021,3.377-0.021c-6.571-3.222-5.357,0.326-9.686-5.251c1.567,0.15,3.133,0.336,4.722,0.343
	c-2.24-1.429-12.159-3.603-13.8-5.58c-1.552-1.617-4.056-0.894-6.031-1.481c-1.724-0.586-3.52-0.909-5.33-0.815
	c-4.142,0.157-8.22-1.796-12.341-0.737c-2.254,0.601-4.564,0.544-6.853,0.394c-6.26,3.695-9.587,3.187-13.528,2.525
	c-1.574-1.223-2.511-3.062-3.82-4.529c0,0.737-0.007,2.218-0.014,2.962c-3.298-0.486-6.467-1.66-9.629-2.654
	c1.345-0.165,2.711-0.258,4.078-0.4c-1.409-0.465-2.876-0.322-4.314-0.258c-2.089-0.379-3.827-1.867-5.974-1.96
	c-22.254-0.875-5.873-4.151-53.14,2.017c0.043,0.351,0.122,1.037,0.165,1.381c-1.753-0.83-4.686-2.475-6.696-2.096
	c0.937,0.873,1.853,1.767,2.74,2.697c-1.588,0.265-3.184,0.322-4.772,0.115c0.021,0.315,0.079,0.944,0.1,1.259
	c-3.377,1.166-6.997,1.259-10.38,2.396c1.009,0.293,2.475,0.351,2.003,1.817c-1.939,1.567-4.457,1.874-6.718,2.711
	c-1.874,1.531-4.135,2.504-5.945,4.106c-3.906,4.092-9.028,6.668-13.514,10.044c-2.468,1.874-5.737,1.824-8.549,2.869
	c-1.493,0.702-12.307,8.646-14.244,9.236c0.064,0.594,0.136,1.195,0.215,1.796c-0.78,0.143-1.56,0.3-2.325,0.451
	c-0.833,1-16.545,15.771-23.78,29.703c0.479,0.522,0.959,1.052,1.445,1.581c-0.43,0.634-17.751,44.576-18.686,46.637
	c-0.014,0.83,0.114,1.66,0.2,2.49c-0.808,0.522-1.974,0.78-2.225,1.846c-0.88,3.083-2.761,5.795-3.477,8.935
	c-0.551,3.141-0.379,6.353-0.866,9.5c-0.458,1.81,0.923,3.348,0.944,5.108c0.122,1.123-0.83,1.917-1.252,2.869
	c0.279,1.624,1.202,3.105,1.245,4.772c-0.465,1.524-1.331,2.897-1.774,4.435c0.021,1.502,0.372,2.976,0.565,4.457
	c0.808,0.057,1.631,0.122,2.461,0.2c1.57,7.817-0.765,5.876-3.513,15.638c-1.252,4.221-4.822,7.211-6.231,11.339
	c0.258,2.16,1.252,4.378,0.486,6.546c-1.751,5.374-9.862,18.622-5.652,33.609c1.432,8.326,5.034,9.169,7.175,12.176
	c1.114,2.139,2.533,14.214,6.439,15.052c3.026,0.715,3.963,4.364,6.918,5.215c3.505,1.474,7.469,0.443,10.996,1.903
	c4.314,1.56,8.828,0.129,12.992-1.188c-2.702,3.279,2.278,16.661,10.359,18.607c3.141,0.73,6.109-0.952,8.935-2.082
	c1.204,16.525,14.035,38.411,21.598,52.775c-1.631,1.037-3.226,2.11-4.815,3.205c0.072,0.83,0.358,1.674,0.236,2.518
	c-7.09,11.225-17.799,19.323-26.62,29.052c-6.351,7.833-7.579,2.639-11.604,18.235c-2.282,3.062-3.792,6.66-6.439,9.443
	c-0.622,0.708-1.223,1.438-1.688,2.254c0,1.474,0.608,2.854,0.894,4.292c-0.812,4.954-10.12,13.858-12.891,16.282
	c-6.551,10.648-67.937,69.605-70.846,76.118c-0.823,0.286-1.66,0.53-2.44,0.902c-5.043,3.771-14.291,3.946-20.241,5.909
	c-48.02,15.839-58.021,44.099-66.73,66.103c-1.009,2.561-2.683,4.908-3.019,7.705c-2.521,18.949-23.747,21.084-27.043,134.568
	c-1.737,59.8,3.755,48.42-16.957,166.06c-8.81,50.037-35.752,106.783-43.878,112.792c-11.65,8.537-42.273,69.009-57.341,106.368
	c-17.791,44.109-34.349,79.092-76.645,134.041c-1.71,0.444-3.176-0.758-4.586-1.495c-10.818-6.097-29.574-4.954-41.958-3.806
	c-6.782,2.11-13.95,0.272-20.825,1.402c-2.94,1.667-6.346,0.916-9.558,1.166c-3.377,0.358-6.245,2.332-9.393,3.391
	c-8.997,1.312-14.358,11.598-12.226,15.975c0.379,1.982,3.255,3.012,2.561,5.237c-7.22,13.213-12.512,34.38-13.836,38.359
	c-3.97,14.65-8.414,15.909-8.621,30.683c-4.214,2.819-9.808,4.836-11.446,10.151c0.229,2.511,0.665,5.015,0.951,7.533
	c1.438,2.926,4.822,3.985,7.619,5.201c4.714,1.538,8.671,5.058,13.743,5.53c2.16,0.544,4.908-0.501,6.589,1.331
	c7.938,9.157,26.128,8.511,35.841,10.688c7.697,4.38,6.143,10.148,16.54,12.119c-0.594,0.308-1.188,0.622-1.781,0.952
	c7.771-1.127,7.936,1.544,16.991-3.606c-1.601,3.848-9.981,31.368-10.96,40.77c-3.7,22.667,7.297,48.399,20.811,67.691
	c10.044,10.681,23.129,17.777,36.349,23.758c1,0.594,71.285,31.177,78.522,32.372c7.323,1.209,15.289,8.809,15.327,16.695
	c0.012,2.586-0.801,5.139-0.636,7.719c0.455,7.086,9.056,6.522,14.208,7.287c26.074,3.872,66.164,1.603,69.475,0.771
	c0,0,159.932-18.303,190.474-17.363c13.27-1.969,13.436-1.206,69.885-6.004c1.001-0.085,135.076-14.35,145.484-19.315
	c3.478-1.659,4.049-1.45,24.418-6.9c34.607-9.259,94.604,11.392,95.604,11.623c0,0,6.737,1.06,51.715,11.128
	c19.295,4.319,22.593,11.239,34.183,13.645c3.784,0.785,7.881,0.754,11.436,2.421c0.08,0.038,19.927,12.318,19.927,12.318
	c2.119,1.625,4.948,1.991,7.345,3.047c4.497,1.981,23.595,20.328,29.176,22.272c4.689,1.633,9.655-0.066,14.454,0.418
	c2.27,0.229,4.314,1.043,6.594,1.275c14.156,1.439,4.478-1.929,15.009,2.713c3.365,1.482,10.143-0.281,10.25-4.716
	c0.026-1.099-0.382-2.158-0.53-3.247c-0.301-2.214,1.838-4.598,2.581-6.63c3.432,4.039,10.849-3.172,10.849-6.869
	c0-2.51,1.531-10.216-0.93-15.853c-1.18-2.747-1.853-5.909-4.214-7.927c-0.866-1.066-2.447-1.874-2.289-3.412
	c1.3-17.954-7.13-27.314-17.041-43.675c-2.197-6.124-14.782-20.712-15.839-21.455c-11.369-23.011-18.577-23.609-23.708-30.848
	c45.111,0.111,53.431,1.959,113.743-13.826c8.072-2.113,15.356-3.951,23.851-3.205c7.63-3.98,14.609-2.744,31.644-12.762
	c16.164-9.509,59.015-10.679,78.24-60.134c12.179-31.33,1.87-58.807,1.387-65.893c7.063,3.899,2.462,3.718,23,12.849
	c11.719,5.165,39.63-13.635,41.869-23.228c0.158-0.677,0.036-5.054,0.318-5.252c2.919-2.053,6.231-3.756,8.155-6.896
	c1.638-2.733,5.13-3.42,6.818-6.088C1378.172,1313.446,1386.686,1304.193,1382.689,1297.487z M522.848,965.958
	c-0.887,2.389-2.454,4.607-2.525,7.24c-0.272,6.362-2.084,12.792-3.005,14.265c-1.717,2.769-1.946,6.102-3.141,9.086
	c-3.36,4.148-4.566,0.937-6.803,12.705c-0.393,2.468-2.11,4.385-3.291,6.51c-0.559,1.001-10.04,15.282-13.249,29.789
	c-7.502,33.878-4.68,32.045-2.182,40.727c-0.717,8.35-5.423,5.368-4.056,21.104c0.279,1.309-0.773,2.354-1.281,3.477
	c-5.605,8.896-0.959,14.78-2.003,18.65c-5.659,6.045-8.835,14.093-9.951,22.206c-2.032,2.311-4.621,4.264-5.659,7.29
	c-1.93,5.544-16.891,20.891-12.162,45.327c-0.401,2.976-2.103,5.873-1.688,9.014c0.515,2.361,1.095,4.729,1.087,7.168
	c-1.488,1.18-3.241,2.246-4.049,4.049c-0.608,1.209-0.873,2.919-2.468,3.226c-82.942,24.208-159.412,66.121-160.413,66.568
	c1.252-3.691,4.164-6.46,6.231-9.686c78.266-113.422,149.062-124.868,192.391-473.778c1.774,0.494,4.021,0.687,5.165,2.318
	c1.288,5.229,3.606,10.159,4.607,15.467c0.157,3.727-1.495,7.469-0.422,11.174c0.758,2.153,3.055,3.355,3.77,5.53
	c2.792,13.438,0.016,0.735,8.27,18.937c0.894,2.196,2.06,4.292,2.704,6.582c-0.737,2.912-3.777,5.23-2.94,8.506
	c0.866,5.337,6.195,7.69,10.18,10.43c-0.99,3.527-13.184,9.514,3.663,19.802c-0.064,4.249-4.743,6.768-4.342,11.11
	c1.116,2.618,3.105,4.808,3.935,7.562c0.801,4.536,0.129,9.279,1.352,13.743c0.794,2.661,4.786,3.148,4.807,6.117
	C523.799,953.148,519.346,954.878,522.848,965.958z M965.649,1217.205c0.579-12.871,5.527-37.027-10.616-57.904
	c-2.318-2.826-2.869-6.56-4.722-9.644c-0.78-1.581-2.175-2.976-2.189-4.815c0.007-5.888-2.94-11.296-6.453-15.832
	c-0.622-1.002-1.831-1.924-1.388-3.219c3.113-17.055-0.979-17.439-2.969-22.42c-0.959-1.939-0.558-4.164-0.994-6.203
	c-0.522-2.812-2.697-5.108-2.661-8.048c-0.043-2.425-0.122-4.843-0.544-7.233c0.1-2.847,2.404-5.365,1.853-8.299
	c-0.615-5.194-3.341-9.801-4.4-14.866c-2.646-18.286-9.196-24.554-17.971-42.194c-1.097-5.606-0.287-14.66-13.278-20.081
	c0.01-1.826,3.257-10.55,0.522-14.472c-2.611-3.927-4.128-8.492-7.161-12.147c-1.502-4.056,1.245-8.22,1.052-12.355
	c-0.186-3.777,0.122-7.547,0.551-11.289c1.402-2.883,4.478-4.514,5.737-7.469c0.708-2.847-0.143-5.745-0.415-8.578
	c-0.272-2.897,1.173-5.594,1.266-8.463c0.229-2.783-0.379-5.602,0.122-8.349c12.612-13.11,8.685-14.045,7.733-18.085
	c1.061-3.658,5.364-5.556,6.975-13.786c1.733-7.058-5.95-0.428,9.179-28.687c1.96-5.144-0.508-10.788,1.059-16.025
	c1.939-6.152-0.83-12.927,1.917-18.901c1.116-3.248,2.997-6.274,3.198-9.772c-0.021-1.366,1.13-2.139,2.325-2.411
	c0.851,4.049,1.152,8.177,1.002,12.319c2.253,35.981,52.141,228.904,75.174,270.377c3.631,6.802,34.888,55.094,72.877,90.211
	c11.532,10.309,24.13,19.394,35.398,29.997c-1.274,3.522-4.148,5.466,2.568,10.624c-2.306,4.648-2.425,6.359,2.983,9.114
	c-1.281,1.889-3.927,3.734-2.654,6.31c0.436,2.511,3.284,3.219,5.251,4.264c0.353,4.219-0.6,6.843,7.354,7.569
	c1.116,1.61,1.581,3.62,2.275,5.473C1095.981,1246.342,1075.719,1235.548,965.649,1217.205z M1160.802,1252.267
	c-1.567-0.408-3.076-0.973-4.564-1.545c-1.18,0.529-2.354,1.08-3.534,1.603c-3.081-4.339-2.604-3.983-7.133-4.636
	c-1.331-3.433-1.311-7.679-9.271-6.181c-1.192-3.765,0.381-2.92-5.079-5.78c0.574-4.131,1.255-4.768-3.019-8.463
	c0.78-1.374,2.017-2.726,1.76-4.414c-0.365-2.575-3.455-3.827-3.248-6.596c3.789,2.829,34.75,32.964,35.319,33.624
	C1161.603,1250.657,1161.188,1251.451,1160.802,1252.267z"/>
</svg>
