<?xml version="1.0" encoding="utf-8"?>

<!DOCTYPE svg PUBLIC "-//W3C//DTD SVG 1.1//EN" "http://www.w3.org/Graphics/SVG/1.1/DTD/svg11.dtd">
<svg version="1.1" id="Layer_1" xmlns="http://www.w3.org/2000/svg" xmlns:xlink="http://www.w3.org/1999/xlink" x="0px" y="0px"
	 viewBox="0 0 1366.651 1722.008" enable-background="new 0 0 1366.651 1722.008" xml:space="preserve">
<g>
	<path d="M1312.286,1609.632c-12.417-6.372-25.289-11.425-38.924-14.315c-5.728-1.214-11.145-2.908-16.311-5.659
		c-7.722-4.113-15.018-9.188-24.618-8.406c-3.792,0.309-6.932-3.07-10.373-4.775c-10.799-5.351-19.615-13.564-29.548-20.165
		c-24.716-16.424-49.12-33.324-73.485-50.267c-27.376-19.037-55.682-36.031-88.402-44.52c-29.547-7.665-59.92-10.093-89.932-14.78
		c-12.52-1.955-25.484-1.55-37.079-7.741c-32.021-17.096-60.763-38.37-82.151-68.082c-10.418-14.472-23.544-25.459-38.081-35.108
		c-19.661-13.05-37.861-27.701-51.858-46.921c-15.455-21.223-22.201-46.219-30.41-70.636c-4.63-13.773-9.257-28.584-21.503-37.359
		c-13.684-9.805-26.849-20.796-42.789-27.169c-13.724-5.488-22.764-15.768-28.474-28.901c-6.816-15.677-9.885-32.381-11.275-49.346
		c-2.358-28.774,12.39-51.774,26.06-74.998c2.263-3.845,6.53-6.505,10.947-8.127c2.376-0.873,4.714-0.128,6.158,1.942
		c1.181,1.694,1.254,3.923-0.75,5.055c-4.848,2.738-2.783,5.571-0.28,8.305c2.599,2.839,5.182,5.795,8.226,8.101
		c5.097,3.862,6.712,8.202,3.518,14.005c-1.529,2.777-2.916,6.076-0.788,8.742c6.01,7.529,9.15,16.929,16.068,23.866
		c2.988,2.997,6.242,3.729,10.31,4.04c21.513,1.644,37.894-9.308,52.604-22.52c7.185-6.454,10.88-17.039,23.225-15.493
		c0.316,0.04,0.828-0.234,1.005-0.516c4.695-7.455,13.419-8.679,20.225-12.769c13.038-7.836,20.569-21.83,33.865-29.189
		c6.278-3.475,6.717-8.272,4.506-14.711c-2.698-7.859-1.191-15.303,1.833-23.438c5.704-15.343,13.213-30.204,14.696-47.066
		c0.617-7.012,2.767-13.927,8.295-19.839c5.276-5.642,10.678-12.639,5.965-21.722c-1.14-2.196-0.745-4.673,0.348-6.719
		c3.041-5.694,1.878-11.086-0.31-16.693c-1.097-2.81-2.41-5.707-2.017-8.947c2.034-16.767,5.533-33.291,7.559-50.108
		c2.09-17.355,5.959-34.855,11.53-51.715c0.839-2.542,1.404-5.245,1.617-7.912c2.66-33.19-0.389-53.511-13.141-83.395
		c-2.345-5.496-4.53-10.1-1.668-16.283c2.122-4.584-0.676-8.308-5.782-9.222c-3.008-0.538-6.225-0.855-9.212-0.392
		c-9.276,1.438-17.493-1.538-25.522-5.472c-7.624-3.736-15.155-7.66-22.74-11.474c-7.948-3.997-15.842-8.027-25.289-6.221
		c-3.563,0.681-7.081-0.727-9.84-2.771c-7.417-5.495-16.047-9.103-22.732-15.827c-6.531-6.568-10.646-5.906-15.338,2.372
		c-2.99,5.274-6.186,7.354-12.079,5.451c-6.159-1.989-11.374-1.223-14.218,5.762c-1.017,2.496-3.551,5.218-6.307,3.388
		c-5.651-3.754-9.863-2.26-14.334,1.844c-2.731,2.506-6.332,2.326-9.907,1.892c-13.414-1.627-16.883,1.252-16.354,14.45
		c0.444,11.093-2.639,21.498-6.083,31.645c-3.078,9.067-9.959,9.517-15.129,1.416c-11.252-17.631-21.617-35.671-23.068-57.327
		c-0.308-4.587-1.657-9.098-2.438-13.659c-4.427-25.882-9.363-51.925-4.695-78.139c6.378-35.815,4.855-71.455,0.645-107.224
		c-2.614-22.203-6.494-44.295-3.693-66.859c1.702-13.707,2.954-27.49,4.169-41.262c2.817-31.894,5.47-34.603,33.638-51.735
		c4.623-2.812,9.212-5.614,13.269-9.258c11.787-10.586,23.753-20.912,39.008-26.429c3.348-1.211,6.583-3.159,5.819-7.487
		c-0.753-4.269-3.781-6.7-8.005-7.214c-7.808-0.951-15.39-0.312-22.49,3.597c-5.07,2.791-10.271,5.347-15.452,7.93
		c-3.115,1.553-6.598,3.619-9.766,1.115c-3.556-2.809-5.081-7.308-3.485-11.513c3.67-9.673,4.908-20.233,11.371-28.924
		c8.596-11.558,13.816-24.9,18.492-38.396c1.756-5.067,3.605-10.243,3.321-15.774c-0.401-7.82-3.756-11.632-11.491-10.73
		c-5.381,0.628-6.196-1.57-7.827-5.635c-3.77-9.401-8.053-10.47-16.856-4.904c-2.312,1.462-3.796,2.853-7.114,1.599
		c-10.197-3.855-12.182-3.269-16.881,6.585c-7.467,15.657-14.862,31.409-18.677,48.505c-0.672,3.01-1.387,6.02-2.311,8.959
		c-0.58,1.843-1.737,3.813-3.851,3.744c-2.659-0.087-3.811-2.171-4.23-4.688c-1.724-10.354-2.676-20.698,0.104-31.035
		c0.901-3.353,1.986-6.678,1.649-10.232c-0.765-8.073-5.618-10.418-12.912-6.717c-3.996,2.028-5.263,5.29-6.12,9.177
		c-2.858,12.961-3.334,26.04-1.544,39.143c0.794,5.811,1.444,11.542-0.238,17.213c-5.989,20.197-7.61,40.769-7.1,61.797
		c0.257,10.616,1.915,21.621-2.197,32.062c-2.707,6.874-3.781,14.109-4.974,21.358c-3.251,19.759-6.683,39.49-10.229,59.199
		c-4.434,24.642-10.788,48.943-11.507,74.208c-0.615,21.584-2.418,43.112-5.465,64.517c-0.596,4.185-0.991,8.413,0.99,12.505
		c4.837,9.99,5.5,20.705,5.646,31.601c0.113,8.473,0.062,16.946,1.038,25.439c2.507,21.813,7.35,43.245,8.497,65.33
		c1.969,37.935,9.375,75.053,23.464,110.45c4.775,11.997,7.657,23.619,7.712,36.663c0.03,7.187-2.157,11.552-6.582,15.884
		c-21.467,21.018-43.426,41.621-62.008,65.314c-20.174,25.724-32.331,54.003-23.493,87.617c4.214,16.025,2.408,31.071-5.109,45.86
		c-5.588,10.994-9.486,22.449-8.833,35.381c0.778,15.407,0.138,30.891-0.037,46.339c-0.105,9.263,0.609,18.715-0.957,27.749
		c-5.743,33.113-5.785,66.762-10.062,100.004c-0.831,6.46-2.286,9.437-9.316,10.219c-16.584,1.845-33.239,1.753-49.723,0.918
		c-32.815-1.663-65.825-2.783-98.121,2.022c-29.411,4.376-59.649,1.628-88.548,13.212c-15.222,6.101-31.201,10.562-45.972,18.234
		c-10.904,5.663-14.721,14.618-15.302,26.29c-1.132,22.743,4.966,45.151,2.765,67.914c-0.482,4.988,2.788,10.633,3.611,15.549
		c1.058,6.322,0.73,12.806,0.199,19.162c-2.02,24.153,1.587,48.482,4.511,72.507c4.504,37.008,12.187,73.628,13.739,110.994
		c0.844,20.31-0.187,40.545-1.55,60.856c-1.833,27.3-17.289,44.344-44.803,46.198c-13.311,0.897-27.996,4.841-41.24,2.926
		c-3.06-0.443-6.231-0.915-9.202-0.056c-2.97,0.86-5.682,3.47-5.575,6.561c0.072,2.065,1.339,3.883,2.67,5.464
		c7.794,9.256,20.056,15.564,32.254,15.527c44.485-0.126,88.972,0.159,133.454,0.579c4.665,0.044,9.706-0.028,13.44-2.824
		c3.255-2.437,4.88-6.577,5.187-10.632c0.374-4.937,0.057-14.281-2.13-18.791c-4.227-8.717-4.371-17.699-5.577-26.787
		c-4.51-33.972-1.168-67.537,4.356-101.064c2.991-18.156,9.039-35.588,11.174-54.024c2.963-25.578,1.195-50.968-2.228-76.063
		c-2.42-17.739-7.954-35.167-13.477-52.447c-5.208-16.292-0.51-20.163,12.056-20.233c2.98-0.017,5.88-0.653,9.032-0.369
		c15.021,1.356,29.354,5.7,43.883,9.263c22.895,5.615,43.985,16.192,66.148,23.776c40.201,13.757,81.968,17.006,124.094,17.103
		c26.628,0.062,53.212-1.267,79.776-3.084c4.155-0.284,8.317-0.624,12.285,1.959c12.615,8.213,25.351,16.207,36.054,26.982
		c5.977,6.017,11.823,12.176,18.682,17.273c18.543,13.78,37.423,27.099,56.931,39.45c29.919,18.943,59.749,37.969,91.345,54.231
		c15.645,8.053,33.206,13.303,46.6,24.834c14.547,12.523,30.922,16.408,49.101,16.587c19.658,0.194,38.941,4.379,57.964,8.122
		c35.781,7.039,70.814,17.665,104.104,32.897c24.742,11.321,51.706,16.343,76.28,27.999c2.337,1.108,5.248,1.249,7.913,1.369
		c5.857,0.264,11.426,1.805,16.985,3.404c13.771,3.961,26.147,10.135,37.373,19.495c2.491,2.077,5.74,4.823,6.378,8.209
		c0.607,3.222-2.435,6.663-0.969,9.698c0.772,1.598,2.647,2.279,4.35,2.78c16.678,4.899,33.838,6.075,51.107,6.974
		c18.762,0.972,37.552,1.084,56.332,1.452c4.158,0.082,8.853,0.15,12.661-1.785c3.965-2.015,5.729-6.255,8.144-9.793
		c3.311-4.85,5.798-10.15,6.058-16.106C1318.437,1615.637,1317.226,1612.167,1312.286,1609.632z"/>
	<path d="M1179.096,1636.838c-0.173-0.229-0.347-0.458-0.52-0.687c-0.54,0.848-0.427,0.982,0.338,0.403L1179.096,1636.838z"/>
</g>
</svg>
