<!-- Generated by IcoMoon.io -->
<svg version="1.1" xmlns="http://www.w3.org/2000/svg" width="38" height="32" viewBox="0 0 38 32">
<title>pisces</title>
<path d="M34.717 5.074c0.978-0.874 2.047-1.703 3.173-2.454l0.105-0.066 0.046-1.641c-2.459 1.317-4.578 2.854-6.463 4.635l0.014-0.013c-2.885 2.77-4.553 5.691-4.989 8.724h-15.072c-0.209-3.36-1.908-6.589-5.083-9.633-1.871-1.769-3.989-3.306-6.291-4.548l-0.157-0.077 0.084 3.003c1.132 0.716 2.106 1.428 3.030 2.198l-0.045-0.037c4.465 3.721 7.014 7.061 5.96 11.338-1.309 5.316-5.086 9.218-7.4 10.812-0.288 0.198-0.571 0.375-0.847 0.544l0.073 2.585c0.479-0.14 2.279-0.738 4.271-2.327 2.127-1.703 4.934-4.931 6.158-10.634 0.128-0.575 0.217-1.251 0.249-1.941l0.001-0.027h14.96c-0.004 0.109-0.006 0.236-0.006 0.364 0 0.89 0.098 1.758 0.284 2.592l-0.015-0.079c2.188 10.21 9.393 12.665 10.428 12.967l0.049-1.752c-0.348-0.218-0.708-0.459-1.076-0.732-2.315-1.713-5.348-4.953-6.656-10.665-1.053-4.593 0.751-9.137 5.214-13.136z"></path>
</svg>
