<svg id="valentine" xmlns="http://www.w3.org/2000/svg" viewBox="0 0 444.62 325.05">
<title>Arrow</title>
  <path class="cls-1" d="M385.48,107.56l37.45,26.84L405,146.7l-4.61-7.06c-64.07-98-162.2,35.39-162.2,35.39S140.09,41.68,76,139.64c-32,49,15.36,125.64,67,187L93.15,360.84,81.78,317.12C74.55,345.18,55.68,380,38.23,404.7c29.38-7.39,68.6-12.51,97.38-9.17L98.78,369.11l50.79-34.87a958.73,958.73,0,0,0,88.64,89.18s197.56-169.77,170-266.74l20-13.71,11.19,43c7.23-28.06,26.1-62.83,43.54-87.59C453.48,105.77,414.26,110.89,385.48,107.56Z" transform="translate(-38.23 -98.37)"/>
</svg>
