<!-- Generated by IcoMoon.io -->
<svg version="1.1" xmlns="http://www.w3.org/2000/svg" width="38" height="32" viewBox="0 0 38 32">
<title>aries</title>
<path d="M33.268 1.645c-0.816-0.913-1.996-1.484-3.31-1.484-0.919 0-1.772 0.279-2.48 0.758l0.016-0.010-5.474 3.655c-0.692 0.469-1.546 0.748-2.465 0.748-1.093 0-2.093-0.395-2.866-1.051l0.006 0.005-3.814-3.219c-0.766-0.649-1.766-1.044-2.858-1.044-1.007 0-1.935 0.335-2.68 0.901l0.011-0.008-7.354 5.529h2.372l4.976-3.745c0.733-0.556 1.66-0.89 2.666-0.89 1.094 0 2.095 0.396 2.868 1.052l-0.006-0.005 3.814 3.219c0.148 0.125 0.31 0.246 0.481 0.355l0.018 0.011h1.941v25.58h1.248v-25.581h1.534l0.102-0.066 5.474-3.656c0.692-0.468 1.545-0.747 2.463-0.747 1.314 0 2.495 0.572 3.308 1.48l0.004 0.004 2.661 2.985h1.593z"></path>
</svg>
