<svg id="aries" xmlns="http://www.w3.org/2000/svg" viewBox="0 0 300.6 256.35">
  <defs>
    <style>
      .cls-1 {
        fill: #231f20;
      }
    </style>
  </defs>
  <path class="cls-1" d="M370.38,135a35.52,35.52,0,0,0-46.26-5.9l-43.85,29.28A35.53,35.53,0,0,1,237.61,156l-30.55-25.79A35.54,35.54,0,0,0,162.78,129l-58.91,44.29h19l39.86-30a35.54,35.54,0,0,1,44.28,1.25l30.55,25.79a36.25,36.25,0,0,0,4,2.93h15.55V378.18h10V173.25h12.29l.82-.53,43.85-29.29a35.53,35.53,0,0,1,46.26,5.91l21.32,23.91h12.76Z" transform="translate(-103.87 -121.82)"/>
</svg>
