<svg id="Layer_1" data-name="Layer 1" xmlns="http://www.w3.org/2000/svg" viewBox="0 0 304.07 255.78">
  <defs>
    <style>
      .cls-1 {
        fill: #fff;
      }

      .cls-2 {
        fill: #231f20;
      }
    </style>
  </defs>
  <line class="cls-1" x1="57.89" y1="123.97" x2="231.1" y2="123.97"/>
  <polygon class="cls-2" points="297.09 255.78 297.09 255.78 297.09 255.78 297.09 255.78"/>
  <path class="cls-2" d="M372.9,163.89a229.34,229.34,0,0,1,26.2-20.14l.37-13.12a236.45,236.45,0,0,0-51.55,36.94c-23.06,22.14-36.39,45.49-39.88,69.73H187.57c-1.67-26.86-15.25-52.67-40.63-77A236.59,236.59,0,0,0,95.4,123.33l.67,24a224.39,224.39,0,0,1,23.86,17.28c35.69,29.74,56.06,56.44,47.64,90.63-10.46,42.49-40.65,73.68-59.15,86.42-2.3,1.58-4.56,3-6.77,4.35l.58,20.66c3.83-1.12,18.22-5.9,34.14-18.6,17-13.61,39.44-39.41,49.22-85a97.28,97.28,0,0,0,2-15.73H307.17a94.72,94.72,0,0,0,2.11,23c17.49,81.61,75.08,101.23,83.35,103.65l.39-14c-2.78-1.74-5.66-3.67-8.6-5.85-18.5-13.69-42.75-39.59-53.2-85.25C322.8,232.18,337.22,195.86,372.9,163.89Z" transform="translate(-95.4 -123.33)"/>
</svg>
