<svg id="scorpio" xmlns="http://www.w3.org/2000/svg" viewBox="0 0 327.53 251.36">
  <defs>
    <style>
      .cls-1 {
        fill: #231f20;
      }
    </style>
  </defs>
  <path class="cls-1" d="M387.81,354.31c-4.54-2.07-10.18-5.61-13.69-9.38l1.33,4.5-35.3.34-23.9-214c-1.48-13.29-10.54-23.17-21.23-23.17h-35.1c-10.15,0-18.92,8.94-21,21.41L204.8,339.6c-.42,2.51-3.29,2.47-3.66-.05L171.21,134.64c-1.86-12.77-10.73-22-21.08-22H127.66c-9.78,0-18.31,8.3-20.76,20.17L60.28,359H72.62l36.18-180c2.44-10.6,7.19-44.43,17-44.43h19.46c10.35,0,17.59,32.64,19.45,44l28.59,164.66c1,6.55,5.17,11.6,10.44,12.5,10,1.73,7.84-6.69,8-8.71L242,179.86c2.07-11.14,9.3-45.24,19.46-45.24h31.79c10.69,0,17.24,31.68,18.72,43.53l18.27,176.12,0,5.59,45.22-.43L374.24,364C377.7,360.11,383.3,356.46,387.81,354.31Z" transform="translate(-60.28 -112.59)"/>
</svg>
