<!-- Generated by IcoMoon.io -->
<svg version="1.1" xmlns="http://www.w3.org/2000/svg" width="58" height="32" viewBox="0 0 58 32">
<title>aquarius</title>
<path d="M54.995 1.748c-3.689-0.827-10.907 26.436-14.721 26.284-4.278-0.172-0.687-26.167-6.561-27.387-7.513-1.562-11.084 27.023-16.402 26.853-1.922-0.062 4.315-13.651-0.656-25.198-5.291-12.29-16.655 28.686-16.655 28.686l1.31 0.023c0.447-1.769 8.863-34.638 14.098-25.863 5.043 8.472-0.814 24.138 1.141 24.185 5.398 0.128 11.442-25.899 16.478-24.642 5.856 1.462 2.52 24.287 6.866 24.413 3.876 0.111 10.594-22.429 14.343-21.819 3.686 0.597 2.062 23.994 1.985 24.701l1.010 0.018s1.453-29.425-2.235-30.252z"></path>
</svg>
