<!-- Generated by IcoMoon.io -->
<svg version="1.1" xmlns="http://www.w3.org/2000/svg" width="42" height="32" viewBox="0 0 42 32">
<title>scorpio</title>
<path d="M41.697 30.773c-0.578-0.264-1.296-0.714-1.743-1.194l0.169 0.573-4.494 0.043-3.043-27.244c-0.188-1.692-1.342-2.95-2.703-2.95h-4.468c-1.292 0-2.409 1.138-2.673 2.726l-4.344 26.173c-0.053 0.32-0.419 0.314-0.466-0.006l-3.81-26.087c-0.237-1.626-1.366-2.801-2.684-2.801h-2.861c-1.245 0-2.331 1.057-2.643 2.568l-5.935 28.796h1.571l4.606-22.915c0.311-1.349 0.915-5.656 2.164-5.656h2.477c1.318 0 2.239 4.155 2.476 5.602l3.64 20.962c0.127 0.834 0.658 1.477 1.329 1.591 1.273 0.22 0.998-0.852 1.018-1.109l3.852-21.281c0.264-1.418 1.184-5.759 2.477-5.759h4.047c1.361 0 2.195 4.033 2.383 5.542l2.326 22.421v0.712l5.757-0.055-0.155 0.582c0.44-0.495 1.153-0.96 1.728-1.234z"></path>
</svg>
