{
  "accessors": [
    {
      "bufferView": 2,
      "componentType": 5126,
      "count": 452,
      "max": [
        2.2421715259552,
        1.7486313581466675,
        2.240694284439087
      ],
      "min": [
        -2.2448465824127197,
        -1.0,
        -2.246324300765991
      ],
      "type": "VEC3"
    },
    {
      "bufferView": 2,
      "byteOffset": 5424,
      "componentType": 5126,
      "count": 452,
      "max": [
        1.0,
        1.0,
        1.0
      ],
      "min": [
        -1.0,
        -1.0,
        -1.0
      ],
      "type": "VEC3"
    },
    {
      "bufferView": 1,
      "componentType": 5126,
      "count": 452,
      "max": [
        1.0,
        1.0
      ],
      "min": [
        0.0,
        0.4999999701976776
      ],
      "type": "VEC2"
    },
    {
      "bufferView": 0,
      "componentType": 5125,
      "count": 2400,
      "type": "SCALAR"
    },
    {
      "bufferView": 2,
      "byteOffset": 10848,
      "componentType": 5126,
      "count": 201,
      "max": [
        1.1434192657470703,
        6.647749900817871,
        1.4796621799468994
      ],
      "min": [
        -1.669910192489624,
        3.322659492492676,
        -3.437161445617676
      ],
      "type": "VEC3"
    },
    {
      "bufferView": 2,
      "byteOffset": 13260,
      "componentType": 5126,
      "count": 201,
      "max": [
        0.9999991655349731,
        0.916081964969635,
        0.9995795488357544
      ],
      "min": [
        -0.9999972581863403,
        -0.9050077199935913,
        -0.9995553493499756
      ],
      "type": "VEC3"
    },
    {
      "bufferView": 1,
      "byteOffset": 3616,
      "componentType": 5126,
      "count": 201,
      "max": [
        1.0,
        1.0
      ],
      "min": [
        0.0,
        0.5
      ],
      "type": "VEC2"
    },
    {
      "bufferView": 0,
      "byteOffset": 9600,
      "componentType": 5125,
      "count": 888,
      "type": "SCALAR"
    },
    {
      "bufferView": 2,
      "byteOffset": 15672,
      "componentType": 5126,
      "count": 560,
      "max": [
        1.2997061014175415,
        10.115800857543945,
        1.5726250410079956
      ],
      "min": [
        -1.2015929222106934,
        0.0,
        -0.5321594476699829
      ],
      "type": "VEC3"
    },
    {
      "bufferView": 2,
      "byteOffset": 22392,
      "componentType": 5126,
      "count": 560,
      "max": [
        0.9992855787277222,
        0.9978097081184387,
        0.9994007349014282
      ],
      "min": [
        -0.9992855787277222,
        -0.9975206851959229,
        -0.9994007349014282
      ],
      "type": "VEC3"
    },
    {
      "bufferView": 1,
      "byteOffset": 5224,
      "componentType": 5126,
      "count": 560,
      "max": [
        0.0,
        0.0
      ],
      "min": [
        0.0,
        0.0
      ],
      "type": "VEC2"
    },
    {
      "bufferView": 0,
      "byteOffset": 13152,
      "componentType": 5125,
      "count": 3288,
      "type": "SCALAR"
    },
    {
      "bufferView": 2,
      "byteOffset": 29112,
      "componentType": 5126,
      "count": 203,
      "max": [
        0.4718226194381714,
        -0.10790277272462845,
        -7.312106132507324
      ],
      "min": [
        0.3677390217781067,
        -4.527620792388916,
        -14.318344116210938
      ],
      "type": "VEC3"
    },
    {
      "bufferView": 2,
      "byteOffset": 31548,
      "componentType": 5126,
      "count": 203,
      "max": [
        0.9997196197509766,
        0.9998373985290527,
        0.9756410717964172
      ],
      "min": [
        -0.9997196197509766,
        -0.998867392539978,
        -0.9756410717964172
      ],
      "type": "VEC3"
    },
    {
      "bufferView": 1,
      "byteOffset": 9704,
      "componentType": 5126,
      "count": 203,
      "max": [
        1.0,
        1.0
      ],
      "min": [
        0.0,
        0.0
      ],
      "type": "VEC2"
    },
    {
      "bufferView": 0,
      "byteOffset": 26304,
      "componentType": 5125,
      "count": 996,
      "type": "SCALAR"
    }
  ],
  "asset": {
    "extras": {
      "author": "Cyberluna (https://sketchfab.com/cyberluna)",
      "license": "CC-BY-4.0 (http://creativecommons.org/licenses/by/4.0/)",
      "source": "https://sketchfab.com/3d-models/graduation-86895e10baf54c46896823394766fb86",
      "title": "Graduation"
    },
    "generator": "Sketchfab-12.67.0",
    "version": "2.0"
  },
  "bufferViews": [
    {
      "buffer": 0,
      "byteLength": 30288,
      "name": "floatBufferViews",
      "target": 34963
    },
    {
      "buffer": 0,
      "byteLength": 11328,
      "byteOffset": 30288,
      "byteStride": 8,
      "name": "floatBufferViews",
      "target": 34962
    },
    {
      "buffer": 0,
      "byteLength": 33984,
      "byteOffset": 41616,
      "byteStride": 12,
      "name": "floatBufferViews",
      "target": 34962
    }
  ],
  "buffers": [
    {
      "byteLength": 75600,
      "uri": "scene.bin"
    }
  ],
  "materials": [
    {
      "doubleSided": true,
      "name": "Material.001",
      "pbrMetallicRoughness": {
        "baseColorFactor": [
          0.00451876,
          0.0,
          0.149153,
          1.0
        ],
        "metallicFactor": 0.0,
        "roughnessFactor": 0.5
      }
    },
    {
      "doubleSided": true,
      "name": "Material.002",
      "pbrMetallicRoughness": {
        "baseColorFactor": [
          0.349326,
          0.0,
          0.000865877,
          1.0
        ],
        "metallicFactor": 0.0,
        "roughnessFactor": 0.5
      }
    },
    {
      "doubleSided": true,
      "name": "Material.003",
      "pbrMetallicRoughness": {
        "baseColorFactor": [
          0.8,
          0.559844,
          0.173484,
          1.0
        ],
        "metallicFactor": 0.0,
        "roughnessFactor": 0.5
      }
    }
  ],
  "meshes": [
    {
      "name": "Object_0",
      "primitives": [
        {
          "attributes": {
            "NORMAL": 1,
            "POSITION": 0,
            "TEXCOORD_0": 2
          },
          "indices": 3,
          "material": 0,
          "mode": 4
        }
      ]
    },
    {
      "name": "Object_1",
      "primitives": [
        {
          "attributes": {
            "NORMAL": 5,
            "POSITION": 4,
            "TEXCOORD_0": 6
          },
          "indices": 7,
          "material": 1,
          "mode": 4
        }
      ]
    },
    {
      "name": "Object_2",
      "primitives": [
        {
          "attributes": {
            "NORMAL": 9,
            "POSITION": 8,
            "TEXCOORD_0": 10
          },
          "indices": 11,
          "material": 2,
          "mode": 4
        }
      ]
    },
    {
      "name": "Object_3",
      "primitives": [
        {
          "attributes": {
            "NORMAL": 13,
            "POSITION": 12,
            "TEXCOORD_0": 14
          },
          "indices": 15,
          "material": 1,
          "mode": 4
        }
      ]
    }
  ],
  "nodes": [
    {
      "children": [
        1
      ],
      "matrix": [
        1.0,
        0.0,
        0.0,
        0.0,
        0.0,
        2.220446049250313e-16,
        -1.0,
        0.0,
        0.0,
        1.0,
        2.220446049250313e-16,
        0.0,
        0.0,
        0.0,
        0.0,
        1.0
      ],
      "name": "Sketchfab_model"
    },
    {
      "children": [
        2
      ],
      "name": "root"
    },
    {
      "children": [
        3,
        5,
        8
      ],
      "matrix": [
        1.0,
        0.0,
        0.0,
        0.0,
        0.0,
        2.220446049250313e-16,
        1.0,
        0.0,
        0.0,
        -1.0,
        2.220446049250313e-16,
        0.0,
        0.0,
        0.0,
        0.0,
        1.0
      ],
      "name": "GLTF_SceneRootNode"
    },
    {
      "children": [
        4
      ],
      "matrix": [
        2.354785408016005,
        0.0,
        -2.354785715239577,
        0.0,
        0.0,
        1.2426700592041016,
        0.0,
        0.0,
        2.354785715239577,
        0.0,
        2.354785408016005,
        0.0,
        0.0,
        1.166937232017517,
        0.0,
        1.0
      ],
      "name": "Cylinder_2"
    },
    {
      "mesh": 0,
      "name": "Object_4"
    },
    {
      "children": [
        6,
        7
      ],
      "matrix": [
        7.787722122731822e-08,
        0.9999999999999964,
        -3.2257801874102654e-08,
        0.0,
        -0.7071067722463473,
        7.787722122731822e-08,
        0.7071067901267433,
        0.0,
        0.7071067901267433,
        -3.2257801874102654e-08,
        0.7071067722463509,
        0.0,
        -0.6274642944335938,
        0.8593237400054932,
        -7.095244884490967,
        1.0
      ],
      "name": "BezierCurve_3"
    },
    {
      "mesh": 1,
      "name": "Object_6"
    },
    {
      "mesh": 2,
      "name": "Object_7"
    },
    {
      "children": [
        9
      ],
      "matrix": [
        5.96828031539917,
        0.0,
        0.0,
        0.0,
        0.0,
        1.0,
        0.0,
        0.0,
        0.0,
        0.0,
        0.48145246505737305,
        0.0,
        0.0,
        3.641885995864868,
        0.0,
        1.0
      ],
      "name": "Plane_4"
    },
    {
      "mesh": 3,
      "name": "Object_9"
    }
  ],
  "scene": 0,
  "scenes": [
    {
      "name": "Sketchfab_Scene",
      "nodes": [
        0
      ]
    }
  ]
}
