<svg id="ufo" xmlns="http://www.w3.org/2000/svg" viewBox="0 0 260.48 231.71">
  <title>UFO</title>
  <!-- <circle r="0"
            fill="darkOrchid" stroke="plum" stroke-width="16">
        <animate attributeName="r" to="190"
                 dur="5s" fill="freeze" end="10s"/>
    </circle> -->

  <defs>
    <!-- <style>
      @keyframes fade{
      0% {fill-opacity:0}
      40% {fill-opacity:1}
      80% {fill-opacity:0}
      100% {fill-opacity:0}
      }
      ufo{
      fill: teal;
    fill-opacity:0;
    stroke: black;
    animation-name: fade;
    animation-duration: 2s;
    animation-iteration-count: infinite;
      }
      .cls-2{animation-delay: 125ms;}
      .c3{animation-delay: 250ms;}
      .c4{animation-delay: 375ms;}
      .c5{animation-delay: 500ms;}
      .c6{animation-delay: 625ms;}
      .c7{animation-delay: 750ms;}
      .c8{animation-delay: 875ms;}
      .cls-1 {
        fill: #fff;
        stroke: #231f20;
        stroke-miterlimit: 10;
      }

      .cls-2 {
        fill: #231f20;
      }

    </style> -->

  </defs>
  <path class="cls-1" d="M91.67,246.33" transform="translate(-104.87 -113.47)"/>
  <g>
    <path class="cls-2" d="M295.34,188.24h0c9.26-8.76,14.57-19.84,13.94-31.6-1.4-25.77-30.76-45-65.59-43s-61.94,24.53-60.55,50.29a37.71,37.71,0,0,0,10,23.16c-52.34,23.73-84.15,44.81-81.37,60.42,1.48,8.31,12.8,15.17,29.89,20.45,6,1.84,12.7,3.5,19.93,4.95L130.24,309.3a17.58,17.58,0,0,0-20.86,4.55A19,19,0,0,0,110.89,340a17.57,17.57,0,0,0,25.32-1.55,19,19,0,0,0,1.9-21.93l35.64-41.45c37.7,6,85.78,7.23,124.35,3L331.58,317A19,19,0,0,0,333.49,339a17.56,17.56,0,0,0,25.32,1.56,19,19,0,0,0,1.51-26.14,17.57,17.57,0,0,0-20.86-4.55l-28.68-33.36c29.64-4.44,51.38-12.56,54.24-24.72C368.91,235.22,337.71,211.89,295.34,188.24Z" transform="translate(-104.87 -113.47)"/>
    <path class="cls-2" d="M360.12,314.15c-.49-.57-.87-1-1.14-1.32Z" transform="translate(-104.87 -113.47)"/>
    <path class="cls-2" d="M360.12,314.15l.2.23.09.11Z" transform="translate(-104.87 -113.47)"/>
    <path class="cls-2" d="M361.69,316l.3.36Z" transform="translate(-104.87 -113.47)"/>
    <path class="cls-2" d="M360.41,314.49l1.28,1.48Z" transform="translate(-104.87 -113.47)"/>
    <path class="cls-2" d="M137.37,337.09l-1.16,1.35-.45.52Z" transform="translate(-104.87 -113.47)"/>
    <path class="cls-2" d="M137.37,337.09l.43-.5Z" transform="translate(-104.87 -113.47)"/>
    <path class="cls-2" d="M135.76,339Z" transform="translate(-104.87 -113.47)"/>
    <path class="cls-2" d="M138,336.31Z" transform="translate(-104.87 -113.47)"/>
    <path class="cls-2" d="M137.8,336.59l.24-.28Z" transform="translate(-104.87 -113.47)"/>
  </g>
</svg>
