<!-- Generated by IcoMoon.io -->
<svg version="1.1" xmlns="http://www.w3.org/2000/svg" width="27" height="32" viewBox="0 0 27 32">
<title>yoga2</title>
<path d="M25.906 24.31c-0.027-0.047-0.021-0.103-0.033-0.153-0.015-0.112-0.267-0.418-0.348-0.62-0.066-0.153-0.344-0.517-0.344-0.517 0.026-0.054 0.042-0.113 0.043-0.173-0.029-0.069-0.047-0.316-0.358-0.368-0.185-0.037 0.024-0.158-0.548-0.124-0.037 0.003-0.443-0.007-0.619 0.061-0.027 0.013-0.058 0.013-0.087 0.015 0.012-0.015 0.024-0.030 0.037-0.045-0.032-0.043-0.082-0.077-0.138-0.065-0.089 0.016-0.172-0.071-0.257-0.028-0.041 0.018-0.087-0.006-0.128-0.012 0.016-0.032 0.026-0.066 0.025-0.102-0.031-0.019-0.062-0.038-0.092-0.057 0.048-0.074-0.006-0.128-0.091-0.15 0.005-0.029 0.011-0.058 0.006-0.087-0.023-0.030-0.050-0.062-0.089-0.070 0.011-0.046-0.021-0.084-0.047-0.117-0.021-0.016-0.049-0.020-0.073-0.029 0.006-0.030 0.016-0.060 0.008-0.090-0.021-0.033-0.058-0.046-0.092-0.062-0.001-0.060-0.047-0.101-0.087-0.139-0.023-0.006-0.046-0.006-0.069-0.008-0.045-0.138-0.113-0.083-0.132-0.153-0.022-0.047-0.072-0.068-0.122-0.065-0.040-0.11-0.036-0.108-0.15-0.117-0.012-0.036-0.027-0.071-0.054-0.098 0.034-0.022 0.049-0.059 0.053-0.098 0.041 0.045 0.096 0.072 0.157 0.078 0.025-0.005 0.053-0.013 0.064-0.039-0.019 0.003-0.037 0.006-0.055 0.009 0.009-0.036 0.034-0.065 0.065-0.085 0.038-0.008 0.078-0.004 0.117-0.006-0.019-0.018-0.034-0.041-0.058-0.052-0.022 0.002-0.043 0.009-0.064 0.014 0.010-0.026 0.018-0.053 0.032-0.077 0.026-0.025 0.061-0.039 0.092-0.058-0.010-0.026-0.022-0.050-0.043-0.069 0.014-0.018 0.027-0.035 0.041-0.052-0.153 0.012-0.038 0.036-0.179 0.067 0.010-0.016 0.020-0.030 0.031-0.045-0.058-0.027-0.118-0.001-0.173 0.020-0.010-0.152 0.017-0.3-0.028-0.352-0.004 0.034-0.001 0.069-0.001 0.104-0.028-0.006-0.027-0.035-0.032-0.057-0.014-0.003-0.028-0.006-0.041-0.009-0.012-0.019-0.023-0.037-0.036-0.055-0.011 0.023-0.019 0.047-0.026 0.072-0.022-0.032-0.048-0.061-0.071-0.091-0.019 0.012-0.040 0.022-0.060 0.031-0.001 0.044-0.001 0.088-0.003 0.133-0.043-0.018-0.039-0.076-0.069-0.107 0.005 0.049 0.018 0.096 0.030 0.144-0.008-0.002-0.025-0.007-0.034-0.009-0.049-0.185-0.651-1.172-0.967-1.484-0.078-0.087-0.087 0.003-0.198-0.31-1.524-3.764-0.389-5.129-1.65-7.21-0.419-0.704-1.152-1.189-2.101-1.245-0.005-0.014-0.011-0.028-0.018-0.041-0.019-0.014-0.789-0.462-1.612-1.095-0.311-0.252-0.484-0.257-0.274-1.574 0.007-0.083 0.38-0.454 0.384-0.772-0.001-0.051 0.030-0.090 0.064-0.124-0.008-0.037-0.015-0.075-0.017-0.113 0.457 0.139 0.24-0.253 0.486-0.569 0.041-0.059 0.027-0.14 0.066-0.2 0.057-0.039 0.134-0.047 0.179-0.103 0.070-0.083 0.124-0.187 0.124-0.298 0.017-0.421 0.037-0.2-0.1-0.468 0.010-0.006 0.021-0.012 0.032-0.018-0.005-0.061-0.020-0.121-0.033-0.181 0.017-0.001 0.034-0.003 0.051-0.004-0.003-0.021-0.006-0.043-0.009-0.064 0.010-0.003 0.029-0.008 0.038-0.011-0.064-0.048-0.119-0.067-0.047-0.125-0.028-0.011-0.057-0.021-0.080-0.039-0.038-0.065 0.056-0.175 0.144-0.344 0.020 0.011 0.035 0.028 0.048 0.047-0.014-0.031-0.040-0.095 0.012-0.101 0.034-0.009 0.046 0.022 0.056 0.048-0.008-0.131-0.013-0.146 0.002-0.444 0.031-0.095 0.027-0.158-0.008-0.406-0.007-0.046 0.012-0.097-0.011-0.14-0.051-0.097-0.061-0.212-0.125-0.302-0.044-0.040-0.024-0.108-0.062-0.151-0.044-0.060-0.083-0.124-0.119-0.189 0.008-0 0.025-0 0.034-0-0.093-0.072-0.277-0.393-0.336-0.435-0.032-0.014-0.337-0.259-0.355-0.276-0.029-0.028-0.066-0.042-0.101-0.061-0.041-0.020-0.063-0.067-0.108-0.079-0.088-0.044-0.077 0.029-0.212-0.094 0.021-0 0.042-0 0.063-0-0.123-0.060-0.1 0.006-0.181-0.098 0.029 0.003 0.059 0.006 0.088 0.006-0.042-0.027-0.228-0.068-0.259-0.105-0.029-0.030-0.076-0.017-0.113-0.028-0.032-0.011-0.066-0.017-0.1-0.015-0.078 0.003-0.154-0.034-0.231-0.014-0.042 0.011-0.085 0.010-0.128 0.007-0.117 0.069-0.18 0.060-0.253 0.047-0.030-0.023-0.047-0.057-0.072-0.085 0 0.014-0 0.042-0 0.056-0.062-0.009-0.121-0.031-0.18-0.050 0.025-0.003 0.051-0.005 0.076-0.008-0.026-0.009-0.054-0.006-0.081-0.005-0.039-0.007-0.072-0.035-0.112-0.037-0.417-0.016-0.11-0.078-0.996 0.038 0.001 0.007 0.002 0.019 0.003 0.026-0.033-0.016-0.088-0.046-0.125-0.039 0.018 0.016 0.035 0.033 0.051 0.051-0.030 0.005-0.060 0.006-0.089 0.002 0 0.006 0.001 0.018 0.002 0.024-0.063 0.022-0.131 0.024-0.194 0.045 0.019 0.006 0.046 0.007 0.038 0.034-0.036 0.029-0.084 0.035-0.126 0.051-0.035 0.029-0.077 0.047-0.111 0.077-0.073 0.077-0.169 0.125-0.253 0.188-0.046 0.035-0.107 0.034-0.16 0.054-0.028 0.013-0.231 0.162-0.267 0.173 0.001 0.011 0.003 0.022 0.004 0.034-0.015 0.003-0.029 0.006-0.044 0.008-0.016 0.019-0.31 0.295-0.446 0.556 0.009 0.010 0.018 0.020 0.027 0.030-0.008 0.012-0.333 0.835-0.35 0.874-0 0.016 0.002 0.031 0.004 0.047-0.015 0.010-0.037 0.015-0.042 0.035-0.017 0.058-0.052 0.109-0.065 0.167-0.010 0.059-0.007 0.119-0.016 0.178-0.009 0.034 0.017 0.063 0.018 0.096 0.002 0.021-0.016 0.036-0.023 0.054 0.005 0.030 0.023 0.058 0.023 0.089-0.009 0.029-0.025 0.054-0.033 0.083 0 0.028 0.007 0.056 0.011 0.083 0.015 0.001 0.031 0.002 0.046 0.004 0.029 0.146-0.014 0.11-0.066 0.293-0.023 0.079-0.090 0.135-0.117 0.212 0.005 0.040 0.023 0.082 0.009 0.123-0.033 0.101-0.185 0.349-0.106 0.63 0.027 0.156 0.094 0.172 0.134 0.228 0.021 0.040 0.047 0.266 0.121 0.282 0.057 0.013 0.074 0.082 0.13 0.098 0.066 0.028 0.14 0.008 0.206 0.036 0.081 0.029 0.165 0.002 0.243-0.022-0.051 0.061 0.043 0.312 0.194 0.349 0.059 0.014 0.114-0.018 0.167-0.039 0.023 0.31 0.263 0.72 0.405 0.989-0.031 0.019-0.060 0.040-0.090 0.060 0.001 0.016 0.007 0.031 0.004 0.047-0.133 0.21-0.333 0.362-0.499 0.544-0.119 0.147-0.142 0.049-0.217 0.342-0.043 0.057-0.071 0.125-0.121 0.177-0.012 0.013-0.023 0.027-0.032 0.042 0 0.028 0.011 0.053 0.017 0.080-0.015 0.093-0.19 0.26-0.242 0.305-0.123 0.2-1.273 1.304-1.327 1.426-0.015 0.005-0.031 0.010-0.046 0.017-0.095 0.071-0.268 0.074-0.379 0.111-0.9 0.297-1.087 0.826-1.25 1.239-0.019 0.048-0.050 0.092-0.057 0.144-0.047 0.355-0.445 0.395-0.507 2.521-0.033 1.12 0.070 0.907-0.318 3.111-0.165 0.938-0.67 2.001-0.822 2.113-0.218 0.16-0.792 1.293-1.074 1.993-0.333 0.826-0.644 1.482-1.436 2.511-0.032 0.008-0.059-0.014-0.086-0.028-0.203-0.114-0.554-0.093-0.786-0.071-0.127 0.040-0.261 0.005-0.39 0.026-0.055 0.031-0.119 0.017-0.179 0.022-0.063 0.007-0.117 0.044-0.176 0.064-0.169 0.025-0.269 0.217-0.229 0.299 0.007 0.037 0.061 0.056 0.048 0.098-0.135 0.248-0.234 0.644-0.259 0.719-0.074 0.274-0.158 0.298-0.162 0.575-0.079 0.053-0.184 0.091-0.214 0.19 0.004 0.047 0.012 0.094 0.018 0.141 0.027 0.055 0.090 0.075 0.143 0.097 0.088 0.029 0.162 0.095 0.258 0.104 0.040 0.010 0.092-0.009 0.123 0.025 0.149 0.172 0.49 0.159 0.671 0.2 0.144 0.082 0.115 0.19 0.31 0.227-0.011 0.006-0.022 0.012-0.033 0.018 0.146-0.021 0.149 0.029 0.318-0.068-0.030 0.072-0.187 0.588-0.205 0.764-0.069 0.425 0.137 0.907 0.39 1.268 0.188 0.2 0.433 0.333 0.681 0.445 0.019 0.011 1.336 0.584 1.471 0.607 0.137 0.023 0.286 0.165 0.287 0.313 0 0.048-0.015 0.096-0.012 0.145 0.009 0.133 0.17 0.122 0.266 0.137 0.489 0.073 1.24 0.030 1.302 0.014 0 0 2.996-0.343 3.569-0.325 0.249-0.037 0.252-0.023 1.309-0.113 0.019-0.002 2.531-0.269 2.726-0.362 0.065-0.031 0.076-0.027 0.457-0.129 0.648-0.173 1.773 0.213 1.791 0.218 0 0 0.126 0.020 0.969 0.209 0.361 0.081 0.423 0.211 0.64 0.256 0.071 0.015 0.148 0.014 0.214 0.045 0.002 0.001 0.373 0.231 0.373 0.231 0.040 0.030 0.093 0.037 0.138 0.057 0.084 0.037 0.442 0.381 0.547 0.417 0.088 0.031 0.181-0.001 0.271 0.008 0.043 0.004 0.081 0.020 0.124 0.024 0.265 0.027 0.084-0.036 0.281 0.051 0.063 0.028 0.19-0.005 0.192-0.088 0-0.021-0.007-0.040-0.010-0.061-0.006-0.041 0.034-0.086 0.048-0.124 0.064 0.076 0.203-0.059 0.203-0.129 0-0.047 0.029-0.191-0.017-0.297-0.022-0.051-0.035-0.111-0.079-0.149-0.016-0.020-0.046-0.035-0.043-0.064 0.024-0.336-0.134-0.512-0.319-0.818-0.041-0.115-0.277-0.388-0.297-0.402-0.213-0.431-0.348-0.442-0.444-0.578 0.845 0.002 1.001 0.037 2.131-0.259 0.151-0.040 0.288-0.074 0.447-0.060 0.143-0.075 0.274-0.051 0.593-0.239 0.303-0.178 1.106-0.2 1.466-1.127 0.228-0.587 0.035-1.102 0.026-1.235 0.132 0.073 0.046 0.070 0.431 0.241 0.22 0.097 0.742-0.255 0.784-0.435 0.003-0.013 0.001-0.095 0.006-0.098 0.055-0.038 0.117-0.070 0.153-0.129 0.031-0.051 0.096-0.064 0.128-0.114 0.179-0.205 0.339-0.378 0.264-0.504zM9.796 18.098c-0.017 0.045-0.046 0.086-0.047 0.136-0.005 0.119-0.039 0.24-0.056 0.267-0.032 0.052-0.036 0.114-0.059 0.17-0.063 0.078-0.086 0.018-0.127 0.238-0.007 0.046-0.040 0.082-0.062 0.122-0.010 0.019-0.188 0.286-0.248 0.558-0.141 0.635-0.088 0.6-0.041 0.763-0.013 0.156-0.102 0.101-0.076 0.395 0.005 0.025-0.014 0.044-0.024 0.065-0.105 0.167-0.018 0.277-0.038 0.349-0.106 0.113-0.166 0.264-0.186 0.416-0.038 0.043-0.087 0.080-0.106 0.137-0.036 0.104-0.316 0.391-0.228 0.849-0.008 0.056-0.039 0.11-0.032 0.169 0.010 0.044 0.021 0.089 0.020 0.134-0.028 0.022-0.061 0.042-0.076 0.076-0.011 0.023-0.016 0.055-0.046 0.060-1.554 0.454-2.987 1.239-3.005 1.247 0.023-0.069 0.078-0.121 0.117-0.181 1.466-2.125 2.793-2.34 3.605-8.877 0.033 0.009 0.075 0.013 0.097 0.043 0.024 0.098 0.068 0.19 0.086 0.29 0.003 0.070-0.028 0.14-0.008 0.209 0.014 0.040 0.057 0.063 0.071 0.104 0.052 0.252 0 0.014 0.155 0.355 0.017 0.041 0.039 0.080 0.051 0.123-0.014 0.055-0.071 0.098-0.055 0.159 0.016 0.1 0.116 0.144 0.191 0.195-0.019 0.066-0.247 0.178 0.069 0.371-0.001 0.080-0.089 0.127-0.081 0.208 0.021 0.049 0.058 0.090 0.074 0.142 0.015 0.085 0.002 0.174 0.025 0.258 0.015 0.050 0.090 0.059 0.090 0.115-0.030 0.093-0.113 0.126-0.047 0.333zM18.092 22.805c0.011-0.241 0.104-0.694-0.199-1.085-0.043-0.053-0.054-0.123-0.088-0.181-0.015-0.030-0.041-0.056-0.041-0.090 0-0.11-0.055-0.212-0.121-0.297-0.012-0.019-0.034-0.036-0.026-0.060 0.058-0.32-0.018-0.327-0.056-0.42-0.018-0.036-0.010-0.078-0.019-0.116-0.010-0.053-0.051-0.096-0.050-0.151-0.001-0.045-0.002-0.091-0.010-0.136 0.002-0.053 0.045-0.101 0.035-0.155-0.012-0.097-0.063-0.184-0.082-0.279-0.050-0.343-0.172-0.46-0.337-0.791-0.021-0.105-0.005-0.275-0.249-0.376 0-0.034 0.061-0.198 0.010-0.271-0.049-0.074-0.077-0.159-0.134-0.228-0.028-0.076 0.023-0.154 0.020-0.231-0.003-0.071 0.002-0.141 0.010-0.212 0.026-0.054 0.084-0.085 0.108-0.14 0.013-0.053-0.003-0.108-0.008-0.161-0.005-0.054 0.022-0.105 0.024-0.159 0.004-0.052-0.007-0.105 0.002-0.156 0.236-0.246 0.163-0.263 0.145-0.339 0.020-0.069 0.101-0.104 0.131-0.258 0.032-0.132-0.111-0.008 0.172-0.537 0.037-0.096-0.010-0.202 0.020-0.3 0.036-0.115-0.016-0.242 0.036-0.354 0.021-0.061 0.056-0.118 0.060-0.183-0-0.026 0.021-0.040 0.044-0.045 0.016 0.076 0.022 0.153 0.019 0.231 0.042 0.674 0.977 4.289 1.408 5.066 0.068 0.127 0.654 1.032 1.365 1.69 0.216 0.193 0.452 0.363 0.663 0.562-0.024 0.066-0.078 0.102 0.048 0.199-0.043 0.087-0.045 0.119 0.056 0.171-0.024 0.035-0.074 0.070-0.050 0.118 0.008 0.047 0.062 0.060 0.098 0.080 0.007 0.079-0.011 0.128 0.138 0.142 0.021 0.030 0.030 0.068 0.043 0.103-0.742-0.104-1.122-0.307-3.184-0.65zM21.749 23.462c-0.029-0.008-0.058-0.018-0.085-0.029-0.022 0.010-0.044 0.020-0.066 0.030-0.058-0.081-0.049-0.075-0.134-0.087-0.025-0.064-0.025-0.144-0.174-0.116-0.022-0.071 0.007-0.055-0.095-0.108 0.011-0.077 0.023-0.089-0.057-0.159 0.015-0.026 0.038-0.051 0.033-0.083-0.007-0.048-0.065-0.072-0.061-0.124 0.071 0.053 0.651 0.618 0.662 0.63-0.008 0.015-0.016 0.029-0.023 0.045z"></path>
</svg>
