<!-- Generated by IcoMoon.io -->
<svg version="1.1" xmlns="http://www.w3.org/2000/svg" width="25" height="32" viewBox="0 0 25 32">
<title>yoga1</title>
<path d="M24.386 29.912c-0.231-0.118-0.47-0.212-0.723-0.266-0.106-0.023-0.207-0.054-0.303-0.105-0.143-0.076-0.279-0.171-0.457-0.156-0.070 0.006-0.129-0.057-0.193-0.089-0.201-0.099-0.364-0.252-0.549-0.375-0.459-0.305-0.913-0.619-1.366-0.934-0.509-0.354-1.035-0.67-1.643-0.827-0.549-0.142-1.113-0.188-1.671-0.275-0.233-0.036-0.474-0.029-0.689-0.144-0.595-0.318-1.129-0.713-1.527-1.265-0.194-0.269-0.438-0.473-0.708-0.652-0.365-0.242-0.704-0.515-0.964-0.872-0.287-0.394-0.413-0.859-0.565-1.313-0.086-0.256-0.172-0.531-0.4-0.694-0.254-0.182-0.499-0.386-0.795-0.505-0.255-0.102-0.423-0.293-0.529-0.537-0.127-0.291-0.184-0.602-0.21-0.917-0.044-0.535 0.23-0.962 0.484-1.394 0.042-0.071 0.121-0.121 0.203-0.151 0.044-0.016 0.088-0.002 0.114 0.036 0.022 0.031 0.023 0.073-0.014 0.094-0.090 0.051-0.052 0.104-0.005 0.154 0.048 0.053 0.096 0.108 0.153 0.151 0.095 0.072 0.125 0.152 0.065 0.26-0.028 0.052-0.054 0.113-0.015 0.162 0.112 0.14 0.17 0.315 0.299 0.444 0.056 0.056 0.116 0.069 0.192 0.075 0.4 0.031 0.704-0.173 0.978-0.419 0.134-0.12 0.202-0.317 0.432-0.288 0.006 0.001 0.015-0.004 0.019-0.010 0.087-0.139 0.249-0.161 0.376-0.237 0.242-0.146 0.382-0.406 0.629-0.542 0.117-0.065 0.125-0.154 0.084-0.273-0.050-0.146-0.022-0.284 0.034-0.436 0.106-0.285 0.246-0.561 0.273-0.875 0.011-0.13 0.051-0.259 0.154-0.369 0.098-0.105 0.198-0.235 0.111-0.404-0.021-0.041-0.014-0.087 0.006-0.125 0.056-0.106 0.035-0.206-0.006-0.31-0.020-0.052-0.045-0.106-0.037-0.166 0.038-0.312 0.103-0.619 0.14-0.931 0.039-0.322 0.111-0.648 0.214-0.961 0.016-0.047 0.026-0.097 0.030-0.147 0.049-0.617-0.007-0.994-0.244-1.55-0.044-0.102-0.084-0.188-0.031-0.303 0.039-0.085-0.013-0.154-0.107-0.171-0.056-0.010-0.116-0.016-0.171-0.007-0.172 0.027-0.325-0.029-0.474-0.102-0.142-0.069-0.282-0.142-0.423-0.213-0.148-0.074-0.294-0.149-0.47-0.116-0.066 0.013-0.132-0.014-0.183-0.052-0.138-0.102-0.298-0.169-0.422-0.294-0.121-0.122-0.198-0.11-0.285 0.044-0.056 0.098-0.115 0.137-0.224 0.101-0.114-0.037-0.211-0.023-0.264 0.107-0.019 0.046-0.066 0.097-0.117 0.063-0.105-0.070-0.183-0.042-0.266 0.034-0.051 0.047-0.118 0.043-0.184 0.035-0.249-0.030-0.314 0.023-0.304 0.269 0.008 0.206-0.049 0.399-0.113 0.588-0.057 0.168-0.185 0.177-0.281 0.026-0.209-0.328-0.402-0.663-0.429-1.065-0.006-0.085-0.031-0.169-0.045-0.254-0.082-0.481-0.174-0.965-0.087-1.452 0.119-0.666 0.090-1.328 0.012-1.993-0.049-0.413-0.121-0.823-0.069-1.242 0.032-0.255 0.055-0.511 0.077-0.767 0.052-0.593 0.102-0.643 0.625-0.961 0.086-0.052 0.171-0.104 0.247-0.172 0.219-0.197 0.441-0.389 0.725-0.491 0.062-0.022 0.122-0.059 0.108-0.139-0.014-0.079-0.070-0.124-0.149-0.134-0.145-0.018-0.286-0.006-0.418 0.067-0.094 0.052-0.191 0.099-0.287 0.147-0.058 0.029-0.123 0.067-0.181 0.021-0.066-0.052-0.094-0.136-0.065-0.214 0.068-0.18 0.091-0.376 0.211-0.538 0.16-0.215 0.257-0.463 0.344-0.714 0.033-0.094 0.067-0.19 0.062-0.293-0.007-0.145-0.070-0.216-0.214-0.199-0.1 0.012-0.115-0.029-0.145-0.105-0.070-0.175-0.15-0.195-0.313-0.091-0.043 0.027-0.071 0.053-0.132 0.030-0.19-0.072-0.226-0.061-0.314 0.122-0.139 0.291-0.276 0.584-0.347 0.901-0.012 0.056-0.026 0.112-0.043 0.167-0.011 0.034-0.032 0.071-0.072 0.070-0.049-0.002-0.071-0.040-0.079-0.087-0.032-0.192-0.050-0.385 0.002-0.577 0.017-0.062 0.037-0.124 0.031-0.19-0.014-0.15-0.104-0.194-0.24-0.125-0.074 0.038-0.098 0.098-0.114 0.171-0.053 0.241-0.062 0.484-0.029 0.727 0.015 0.108 0.027 0.215-0.004 0.32-0.111 0.375-0.141 0.758-0.132 1.148 0.005 0.197 0.036 0.402-0.041 0.596-0.050 0.128-0.070 0.262-0.092 0.397-0.060 0.367-0.124 0.734-0.19 1.1-0.082 0.458-0.2 0.909-0.214 1.379-0.011 0.401-0.045 0.801-0.102 1.199-0.011 0.078-0.018 0.156 0.018 0.232 0.090 0.186 0.102 0.385 0.105 0.587 0.002 0.157 0.001 0.315 0.019 0.473 0.047 0.405 0.137 0.804 0.158 1.214 0.037 0.705 0.174 1.395 0.436 2.053 0.089 0.223 0.142 0.439 0.143 0.681 0.001 0.134-0.040 0.215-0.122 0.295-0.399 0.391-0.807 0.773-1.152 1.214-0.375 0.478-0.601 1.004-0.437 1.628 0.078 0.298 0.045 0.577-0.095 0.852-0.104 0.204-0.176 0.417-0.164 0.657 0.014 0.286 0.003 0.574-0.001 0.861-0.002 0.172 0.011 0.348-0.018 0.516-0.107 0.615-0.107 1.241-0.187 1.858-0.015 0.12-0.042 0.175-0.173 0.19-0.308 0.034-0.618 0.033-0.924 0.017-0.61-0.031-1.223-0.052-1.823 0.038-0.547 0.081-1.108 0.030-1.645 0.246-0.283 0.113-0.58 0.196-0.854 0.339-0.203 0.105-0.274 0.272-0.284 0.489-0.021 0.423 0.092 0.839 0.051 1.262-0.009 0.093 0.052 0.198 0.067 0.289 0.020 0.117 0.014 0.238 0.004 0.356-0.038 0.449 0.030 0.901 0.084 1.347 0.084 0.688 0.226 1.368 0.255 2.063 0.016 0.377-0.003 0.753-0.029 1.131-0.034 0.507-0.321 0.824-0.833 0.858-0.247 0.017-0.52 0.090-0.766 0.054-0.057-0.008-0.116-0.017-0.171-0.001s-0.106 0.064-0.104 0.122c0.001 0.038 0.025 0.072 0.050 0.102 0.145 0.172 0.373 0.289 0.599 0.289 0.827-0.002 1.653 0.003 2.48 0.011 0.087 0.001 0.18-0.001 0.25-0.052 0.061-0.045 0.091-0.122 0.096-0.198 0.007-0.092 0.001-0.265-0.040-0.349-0.079-0.162-0.081-0.329-0.104-0.498-0.084-0.631-0.022-1.255 0.081-1.878 0.056-0.337 0.168-0.661 0.208-1.004 0.055-0.475 0.022-0.947-0.041-1.413-0.045-0.33-0.148-0.654-0.25-0.975-0.097-0.303-0.009-0.375 0.224-0.376 0.055-0 0.109-0.012 0.168-0.007 0.279 0.025 0.545 0.106 0.815 0.172 0.425 0.104 0.817 0.301 1.229 0.442 0.747 0.256 1.523 0.316 2.306 0.318 0.495 0.001 0.989-0.024 1.482-0.057 0.077-0.005 0.155-0.012 0.228 0.036 0.234 0.153 0.471 0.301 0.67 0.501 0.111 0.112 0.22 0.226 0.347 0.321 0.345 0.256 0.695 0.504 1.058 0.733 0.556 0.352 1.11 0.706 1.697 1.008 0.291 0.15 0.617 0.247 0.866 0.462 0.27 0.233 0.575 0.305 0.912 0.308 0.365 0.004 0.724 0.081 1.077 0.151 0.665 0.131 1.316 0.328 1.935 0.611 0.46 0.21 0.961 0.304 1.418 0.52 0.043 0.021 0.098 0.023 0.147 0.025 0.109 0.005 0.212 0.034 0.316 0.063 0.256 0.074 0.486 0.188 0.695 0.362 0.046 0.039 0.107 0.090 0.119 0.153 0.011 0.060-0.045 0.124-0.018 0.18 0.014 0.030 0.049 0.042 0.081 0.052 0.31 0.091 0.629 0.113 0.95 0.13 0.349 0.018 0.698 0.020 1.047 0.027 0.077 0.002 0.165 0.003 0.235-0.033 0.074-0.037 0.106-0.116 0.151-0.182 0.062-0.090 0.108-0.189 0.113-0.299 0.004-0.097-0.018-0.161-0.11-0.209z"></path>
<path d="M21.911 30.417c-0.003-0.004-0.006-0.009-0.010-0.013-0.010 0.016-0.008 0.018 0.006 0.008l0.003 0.005z"></path>
</svg>
