<svg id="aquarius" xmlns="http://www.w3.org/2000/svg" viewBox="0 0 448.74 249.68">
  <defs>
    <style>
      .cls-1 {
        fill: #231f20;
      }
    </style>
  </defs>
  <path class="cls-1" d="M445.53,120.4c-28.78-6.45-85.1,206.27-114.86,205.08-33.38-1.34-5.36-204.17-51.19-213.69C220.86,99.6,193,322.64,151.5,321.31c-15-.48,33.67-106.51-5.12-196.61C105.1,28.81,16.43,348.52,16.43,348.52l10.22.18c3.49-13.8,69.15-270.26,110-201.8C176,213,130.3,335.24,145.55,335.6c42.12,1,89.28-202.08,128.57-192.27,45.69,11.41,19.66,189.5,53.57,190.48,30.24.87,82.66-175,111.91-170.24,28.76,4.66,16.09,187.21,15.49,192.73l7.88.14S474.31,126.85,445.53,120.4Z" transform="translate(-16.43 -106.76)"/>
</svg>
