<svg id="RGB" xmlns="http://www.w3.org/2000/svg" viewBox="0 0 400 400">
  <title>rgb</title>
  <g>
    <g>
      <path d="M328.56,294.31h-3.18v11.63a19,19,0,0,0,3.61.19c4.23,0,8-1.66,8-6C337,296,333.22,294.31,328.56,294.31Z" fill="blue"/>
      <path d="M328.44,287.63c5,0,7.54-2,7.54-5.08s-2.39-4.78-6.62-4.78a17,17,0,0,0-4,.31v9.55h3.06Z" fill="blue"/>
      <path d="M398.81,240.87a133.1,133.1,0,0,0-65.1-97.59L199.64,373.79A133.34,133.34,0,0,0,398.81,240.87Zm-56.34,68.38c-3,2.39-8,3.74-16.23,3.74a71.33,71.33,0,0,1-10.11-.62V271.89h0A72.61,72.61,0,0,1,328.2,271c5.69,0,9.18.55,12.19,2.33a9,9,0,0,1,4.89,8.14c0,3.62-2.14,7-6.73,8.76v.12c4.71,1.23,8.21,4.84,8.21,10.17A10.83,10.83,0,0,1,342.47,309.25Z" fill="blue"/>
    </g>
    <path d="M67,142.37c-.47.27-.94.54-1.4.82a133.35,133.35,0,0,0,134,230.59ZM92.76,319.61h0A46.21,46.21,0,0,1,79,321.94c-7.53,0-13-1.9-16.78-5.51s-5.82-9-5.82-15.07C56.44,287.64,66.42,279.8,80,279.8a29.82,29.82,0,0,1,11.46,2l-2,7.54a21.52,21.52,0,0,0-9.56-1.78c-7.78,0-13.72,4.41-13.72,13.35,0,8.58,5.39,13.54,13,13.54a14.47,14.47,0,0,0,4.53-.55v-8.7H77.38v-7.29H92.76Z" fill="lime"/>
    <g>
      <path d="M201.88,56.45a18.89,18.89,0,0,0-4.22.3V68.08h3.67c4.66,0,7.41-2.32,7.41-5.94S206.17,56.45,201.88,56.45Z" fill="red"/>
      <path d="M332.51,125.17A133.33,133.33,0,0,0,67,142.38l266.68.9A133.8,133.8,0,0,0,332.51,125.17ZM210,91.05a54.07,54.07,0,0,1-2.82-9.61c-1.16-5.21-2.94-6.56-6.8-6.62h-2.75V91.05h-9.25V50.38h0a73.32,73.32,0,0,1,12.43-.92c6.13,0,10.41.92,13.36,3.31,2.51,2,3.85,4.84,3.85,8.64a10.92,10.92,0,0,1-7.29,10.1v.19c2.88,1.16,4.48,3.86,5.52,7.65,1.28,4.72,2.51,10.11,3.3,11.7Z" fill="red"/>
    </g>
    <path d="M199,143.64a133.52,133.52,0,0,1,134.76-.36h0a133.51,133.51,0,0,1-67,115.25" fill="#f0f"/>
    <path d="M133.33,258.07a133.12,133.12,0,0,1-65.11-97.58A135.63,135.63,0,0,1,67,142.38h0a133.53,133.53,0,0,1,133.34.45" fill="#ff0"/>
    <path d="M266.67,258.53a133.47,133.47,0,0,1-67,115.25h0a133.56,133.56,0,0,1-66.31-115.72" fill="aqua"/>
    <path d="M266.68,258.53a133.53,133.53,0,0,1-133.35-.46h0A133.47,133.47,0,0,1,199,143.64l1.42-.82a133.4,133.4,0,0,1,66.3,115.71Z" fill="#fff"/>
  </g>
</svg>
